<?xml version="1.0" encoding="utf-8" ?>
<svg baseProfile="tiny" height="302.286606784" version="1.2" width="804.786294501" xmlns="http://www.w3.org/2000/svg" xmlns:ev="http://www.w3.org/2001/xml-events" xmlns:xlink="http://www.w3.org/1999/xlink"><defs /><g id="paths" stroke="blue"><path d="M 4.893306967,297.393299817 L 799.892987534,297.393299817 L 799.892987534,4.893306967 L 4.893306967,4.893306967 L 4.893306967,297.393299817 Z" fill-opacity="0" stroke-linejoin="round" stroke-width="1.0" /></g><g fill="red" id="holes"><circle cx="202.6233" cy="187.8633" r="1.125" stroke-width="0.0" /><circle cx="184.6233" cy="102.3633" r="1.125" stroke-width="0.0" /><circle cx="220.6233" cy="120.3633" r="1.125" stroke-width="0.0" /><circle cx="184.6233" cy="178.8633" r="1.125" stroke-width="0.0" /><circle cx="574.623" cy="111.3633" r="1.125" stroke-width="0.0" /><circle cx="175.6233" cy="174.3633" r="1.125" stroke-width="0.0" /><circle cx="175.6233" cy="97.8633" r="1.125" stroke-width="0.0" /><circle cx="143.4033" cy="197.3133" r="1.125" stroke-width="0.0" /><circle cx="202.6233" cy="111.3633" r="1.125" stroke-width="0.0" /><circle cx="72.0333" cy="161.9433" r="1.125" stroke-width="0.0" /><circle cx="211.6233" cy="115.8633" r="1.125" stroke-width="0.0" /><circle cx="166.6233" cy="169.8633" r="1.125" stroke-width="0.0" /><circle cx="193.6233" cy="183.3633" r="1.125" stroke-width="0.0" /><circle cx="556.623" cy="102.3633" r="1.125" stroke-width="0.0" /><circle cx="193.6233" cy="106.8633" r="1.125" stroke-width="0.0" /><circle cx="565.623" cy="106.8633" r="1.125" stroke-width="0.0" /><circle cx="601.623" cy="124.8633" r="1.125" stroke-width="0.0" /><circle cx="547.623" cy="97.8633" r="1.125" stroke-width="0.0" /><circle cx="583.623" cy="114.9633" r="1.125" stroke-width="0.0" /><circle cx="229.6233" cy="124.8633" r="1.125" stroke-width="0.0" /><circle cx="592.9773" cy="120.3633" r="1.125" stroke-width="0.0" /><circle cx="306.4833" cy="208.7433" r="1.8" stroke-width="0.0" /><circle cx="306.4833" cy="217.7433" r="1.8" stroke-width="0.0" /><circle cx="46.8333" cy="260.0433" r="2.3031" stroke-width="0.0" /><circle cx="46.8333" cy="233.4685" r="2.3031" stroke-width="0.0" /><circle cx="46.8333" cy="286.6181" r="2.3031" stroke-width="0.0" /><circle cx="55.6916" cy="242.3268" r="2.3031" stroke-width="0.0" /><circle cx="55.6916" cy="277.7598" r="2.3031" stroke-width="0.0" /><circle cx="11.4002" cy="251.185" r="2.3031" stroke-width="0.0" /><circle cx="11.4002" cy="268.9016" r="2.3031" stroke-width="0.0" /><circle cx="29.1168" cy="286.6181" r="4.252" stroke-width="0.0" /><circle cx="29.1168" cy="233.4685" r="4.252" stroke-width="0.0" /><circle cx="273.7233" cy="73.2933" r="1.125" stroke-width="0.0" /><circle cx="273.7233" cy="82.2933" r="1.125" stroke-width="0.0" /><circle cx="279.6633" cy="209.2833" r="1.7717" stroke-width="0.0" /><circle cx="270.6633" cy="209.2833" r="1.7717" stroke-width="0.0" /><circle cx="99.7533" cy="284.7033" r="1.5059" stroke-width="0.0" /><circle cx="99.7533" cy="230.7033" r="1.5059" stroke-width="0.0" /><circle cx="115.9533" cy="230.7033" r="1.5059" stroke-width="0.0" /><circle cx="116.3076" cy="284.7033" r="1.5059" stroke-width="0.0" /><circle cx="301.6233" cy="56.4633" r="1.8" stroke-width="0.0" /><circle cx="301.6233" cy="47.4633" r="1.8" stroke-width="0.0" /><circle cx="529.623" cy="151.8633" r="1.8" stroke-width="0.0" /><circle cx="538.623" cy="151.8633" r="1.8" stroke-width="0.0" /><circle cx="547.623" cy="151.8633" r="1.8" stroke-width="0.0" /><circle cx="556.623" cy="151.8633" r="1.8" stroke-width="0.0" /><circle cx="565.623" cy="151.8633" r="1.8" stroke-width="0.0" /><circle cx="574.623" cy="151.8633" r="1.8" stroke-width="0.0" /><circle cx="583.623" cy="151.8633" r="1.8" stroke-width="0.0" /><circle cx="592.623" cy="151.8633" r="1.8" stroke-width="0.0" /><circle cx="601.623" cy="151.8633" r="1.8" stroke-width="0.0" /><circle cx="610.623" cy="151.8633" r="1.8" stroke-width="0.0" /><circle cx="619.623" cy="151.8633" r="1.8" stroke-width="0.0" /><circle cx="628.623" cy="151.8633" r="1.8" stroke-width="0.0" /><circle cx="637.623" cy="151.8633" r="1.8" stroke-width="0.0" /><circle cx="646.623" cy="151.8633" r="1.8" stroke-width="0.0" /><circle cx="655.623" cy="151.8633" r="1.8" stroke-width="0.0" /><circle cx="664.623" cy="151.8633" r="1.8" stroke-width="0.0" /><circle cx="664.623" cy="134.6733" r="1.8" stroke-width="0.0" /><circle cx="655.623" cy="134.6733" r="1.8" stroke-width="0.0" /><circle cx="646.623" cy="134.6733" r="1.8" stroke-width="0.0" /><circle cx="637.623" cy="134.6733" r="1.8" stroke-width="0.0" /><circle cx="628.623" cy="134.6733" r="1.8" stroke-width="0.0" /><circle cx="619.623" cy="134.6733" r="1.8" stroke-width="0.0" /><circle cx="610.623" cy="134.6733" r="1.8" stroke-width="0.0" /><circle cx="601.623" cy="134.6733" r="1.8" stroke-width="0.0" /><circle cx="592.9773" cy="134.6733" r="1.8" stroke-width="0.0" /><circle cx="583.623" cy="134.6733" r="1.8" stroke-width="0.0" /><circle cx="574.623" cy="134.6733" r="1.8" stroke-width="0.0" /><circle cx="565.623" cy="134.6733" r="1.8" stroke-width="0.0" /><circle cx="556.623" cy="134.6733" r="1.8" stroke-width="0.0" /><circle cx="547.623" cy="134.6733" r="1.8" stroke-width="0.0" /><circle cx="538.623" cy="134.6733" r="1.8" stroke-width="0.0" /><circle cx="529.623" cy="134.6733" r="1.8" stroke-width="0.0" /><circle cx="520.623" cy="134.6733" r="1.8" stroke-width="0.0" /><circle cx="520.623" cy="151.8633" r="1.8" stroke-width="0.0" /><circle cx="511.623" cy="134.6733" r="1.8" stroke-width="0.0" /><circle cx="511.623" cy="151.8633" r="1.8" stroke-width="0.0" /><circle cx="172.0233" cy="17.0433" r="1.9488" stroke-width="0.0" /><circle cx="163.0233" cy="17.0433" r="1.9488" stroke-width="0.0" /><circle cx="154.0233" cy="17.0433" r="1.9488" stroke-width="0.0" /><circle cx="145.0233" cy="17.0433" r="1.9488" stroke-width="0.0" /><circle cx="136.0233" cy="17.0433" r="1.9488" stroke-width="0.0" /><circle cx="127.0233" cy="17.0433" r="1.9488" stroke-width="0.0" /><circle cx="118.0233" cy="17.0433" r="1.9488" stroke-width="0.0" /><circle cx="109.0233" cy="17.0433" r="1.9488" stroke-width="0.0" /><circle cx="100.0233" cy="17.0433" r="1.9488" stroke-width="0.0" /><circle cx="91.0233" cy="17.0433" r="1.9488" stroke-width="0.0" /><circle cx="82.0233" cy="17.0433" r="1.9488" stroke-width="0.0" /><circle cx="73.0233" cy="17.0433" r="1.9488" stroke-width="0.0" /><circle cx="64.0233" cy="17.0433" r="1.9488" stroke-width="0.0" /><circle cx="55.0233" cy="17.0433" r="1.9488" stroke-width="0.0" /><circle cx="46.0233" cy="17.0433" r="1.9488" stroke-width="0.0" /><circle cx="37.0233" cy="17.0433" r="1.9488" stroke-width="0.0" /><circle cx="28.0233" cy="17.0433" r="1.9488" stroke-width="0.0" /><circle cx="28.0233" cy="71.0433" r="1.9488" stroke-width="0.0" /><circle cx="37.0233" cy="71.0433" r="1.9488" stroke-width="0.0" /><circle cx="46.0233" cy="71.0433" r="1.9488" stroke-width="0.0" /><circle cx="55.0233" cy="71.0433" r="1.9488" stroke-width="0.0" /><circle cx="64.0233" cy="71.0433" r="1.9488" stroke-width="0.0" /><circle cx="73.0233" cy="71.0433" r="1.9488" stroke-width="0.0" /><circle cx="82.0233" cy="71.0433" r="1.9488" stroke-width="0.0" /><circle cx="91.0233" cy="71.0433" r="1.9488" stroke-width="0.0" /><circle cx="100.0233" cy="71.0433" r="1.9488" stroke-width="0.0" /><circle cx="109.0233" cy="71.0433" r="1.9488" stroke-width="0.0" /><circle cx="118.0233" cy="71.0433" r="1.9488" stroke-width="0.0" /><circle cx="127.0233" cy="71.0433" r="1.9488" stroke-width="0.0" /><circle cx="136.0233" cy="71.0433" r="1.9488" stroke-width="0.0" /><circle cx="145.0233" cy="71.0433" r="1.9488" stroke-width="0.0" /><circle cx="154.0233" cy="71.0433" r="1.9488" stroke-width="0.0" /><circle cx="163.0233" cy="71.0433" r="1.9488" stroke-width="0.0" /><circle cx="172.0233" cy="71.0433" r="1.9488" stroke-width="0.0" /><circle cx="157.6233" cy="151.8633" r="1.8" stroke-width="0.0" /><circle cx="166.6233" cy="151.8633" r="1.8" stroke-width="0.0" /><circle cx="175.6233" cy="151.8633" r="1.8" stroke-width="0.0" /><circle cx="184.6233" cy="151.8633" r="1.8" stroke-width="0.0" /><circle cx="193.6233" cy="151.8633" r="1.8" stroke-width="0.0" /><circle cx="202.6233" cy="151.8633" r="1.8" stroke-width="0.0" /><circle cx="211.6233" cy="151.8633" r="1.8" stroke-width="0.0" /><circle cx="220.6233" cy="151.8633" r="1.8" stroke-width="0.0" /><circle cx="229.6233" cy="151.8633" r="1.8" stroke-width="0.0" /><circle cx="238.6233" cy="151.8633" r="1.8" stroke-width="0.0" /><circle cx="247.6233" cy="151.8633" r="1.8" stroke-width="0.0" /><circle cx="256.6233" cy="151.8633" r="1.8" stroke-width="0.0" /><circle cx="265.6233" cy="151.8633" r="1.8" stroke-width="0.0" /><circle cx="274.6233" cy="151.8633" r="1.8" stroke-width="0.0" /><circle cx="283.6233" cy="151.8633" r="1.8" stroke-width="0.0" /><circle cx="292.6233" cy="151.8633" r="1.8" stroke-width="0.0" /><circle cx="292.6233" cy="134.6733" r="1.8" stroke-width="0.0" /><circle cx="283.6233" cy="134.6733" r="1.8" stroke-width="0.0" /><circle cx="274.6233" cy="134.6733" r="1.8" stroke-width="0.0" /><circle cx="265.6233" cy="134.6733" r="1.8" stroke-width="0.0" /><circle cx="256.6233" cy="134.6733" r="1.8" stroke-width="0.0" /><circle cx="247.6233" cy="134.6733" r="1.8" stroke-width="0.0" /><circle cx="238.6233" cy="134.6733" r="1.8" stroke-width="0.0" /><circle cx="229.6233" cy="134.6733" r="1.8" stroke-width="0.0" /><circle cx="220.9776" cy="134.6733" r="1.8" stroke-width="0.0" /><circle cx="211.6233" cy="134.6733" r="1.8" stroke-width="0.0" /><circle cx="202.6233" cy="134.6733" r="1.8" stroke-width="0.0" /><circle cx="193.6233" cy="134.6733" r="1.8" stroke-width="0.0" /><circle cx="184.6233" cy="134.6733" r="1.8" stroke-width="0.0" /><circle cx="175.6233" cy="134.6733" r="1.8" stroke-width="0.0" /><circle cx="166.6233" cy="134.6733" r="1.8" stroke-width="0.0" /><circle cx="157.6233" cy="134.6733" r="1.8" stroke-width="0.0" /><circle cx="148.6233" cy="134.6733" r="1.8" stroke-width="0.0" /><circle cx="148.6233" cy="151.8633" r="1.8" stroke-width="0.0" /><circle cx="139.6233" cy="134.6733" r="1.8" stroke-width="0.0" /><circle cx="139.6233" cy="151.8633" r="1.8" stroke-width="0.0" /></g><g id="rulers" stroke="black" /></svg>